<svg xmlns="http://www.w3.org/2000/svg" width="19.326" height="19.326" viewBox="0 0 19.326 19.326">
  <path id="Path_13" data-name="Path 13" d="M9.663,1.718a29.628,29.628,0,0,1,3.865.107,4.98,4.98,0,0,1,1.825.322,3.771,3.771,0,0,1,1.825,1.825A4.98,4.98,0,0,1,17.5,5.8c0,.966.107,1.288.107,3.865a29.628,29.628,0,0,1-.107,3.865,4.98,4.98,0,0,1-.322,1.825,3.771,3.771,0,0,1-1.825,1.825,4.98,4.98,0,0,1-1.825.322c-.966,0-1.288.107-3.865.107A29.628,29.628,0,0,1,5.8,17.5a4.98,4.98,0,0,1-1.825-.322,3.771,3.771,0,0,1-1.825-1.825,4.98,4.98,0,0,1-.322-1.825c0-.966-.107-1.288-.107-3.865A29.628,29.628,0,0,1,1.825,5.8a4.98,4.98,0,0,1,.322-1.825A3.856,3.856,0,0,1,2.9,2.9a1.815,1.815,0,0,1,1.074-.752A4.98,4.98,0,0,1,5.8,1.825a29.628,29.628,0,0,1,3.865-.107M9.663,0A31.723,31.723,0,0,0,5.69.107,6.628,6.628,0,0,0,3.328.537,4.2,4.2,0,0,0,1.61,1.61,4.2,4.2,0,0,0,.537,3.328,4.892,4.892,0,0,0,.107,5.69,31.723,31.723,0,0,0,0,9.663a31.723,31.723,0,0,0,.107,3.972A6.628,6.628,0,0,0,.537,16,4.2,4.2,0,0,0,1.61,17.715a4.2,4.2,0,0,0,1.718,1.074,6.628,6.628,0,0,0,2.362.429,31.723,31.723,0,0,0,3.972.107,31.723,31.723,0,0,0,3.972-.107A6.628,6.628,0,0,0,16,18.789,4.5,4.5,0,0,0,18.789,16a6.628,6.628,0,0,0,.429-2.362c0-1.074.107-1.4.107-3.972a31.723,31.723,0,0,0-.107-3.972,6.628,6.628,0,0,0-.429-2.362A4.2,4.2,0,0,0,17.715,1.61,4.2,4.2,0,0,0,16,.537,6.628,6.628,0,0,0,13.635.107,31.723,31.723,0,0,0,9.663,0m0,4.724A4.859,4.859,0,0,0,4.724,9.663,4.939,4.939,0,1,0,9.663,4.724m0,8.16A3.163,3.163,0,0,1,6.442,9.663,3.163,3.163,0,0,1,9.663,6.442a3.163,3.163,0,0,1,3.221,3.221,3.163,3.163,0,0,1-3.221,3.221m5.154-9.555A1.181,1.181,0,1,0,16,4.509a1.191,1.191,0,0,0-1.181-1.181" transform="translate(0)" fill="#2ccb69" fill-rule="evenodd"/>
</svg>
