<svg xmlns="http://www.w3.org/2000/svg" width="45" height="90" viewBox="0 0 45 90">
  <g id="Group_214" data-name="Group 214" transform="translate(-4361 -990)">
    <rect id="Rectangle_62" data-name="Rectangle 62" width="45" height="45" transform="translate(4361 1035)" fill="#fff" opacity="0"/>
    <rect id="Rectangle_63" data-name="Rectangle 63" width="45" height="45" transform="translate(4361 990)" fill="#fff" opacity="0"/>
    <path id="Subtraction_1" data-name="Subtraction 1" d="M22.21,18.541H3.587a3,3,0,0,1-3-3v-12a2.994,2.994,0,0,1,.167-.989l11.714,10.11a1.132,1.132,0,0,0,.631.314,1.04,1.04,0,0,0,.608-.314L25.042,2.547a2.991,2.991,0,0,1,.169.994v12A3,3,0,0,1,22.21,18.541ZM13.082,10.32a.62.62,0,0,1-.378-.188L2.061.958A3,3,0,0,1,3.587.541H22.21A3,3,0,0,1,23.75.965l-10.27,9.167a.667.667,0,0,1-.38.187Z" transform="translate(4370.412 1003.459)"/>
    <g id="Group_213" data-name="Group 213" transform="translate(2529.5 40.5)">
      <line id="Line_8" data-name="Line 8" x2="13" y2="13" transform="translate(1847.5 1010.5)" fill="none" stroke="#000" stroke-linecap="round" stroke-width="2"/>
      <line id="Line_9" data-name="Line 9" x2="13" y2="13" transform="translate(1860.5 1010.5) rotate(90)" fill="none" stroke="#000" stroke-linecap="round" stroke-width="2"/>
    </g>
  </g>
</svg>
