<svg xmlns="http://www.w3.org/2000/svg" width="19.325" height="19.325" viewBox="0 0 19.325 19.325">
  <path id="Path_7" data-name="Path 7" d="M894.018,467.354A9.662,9.662,0,1,1,884.33,477,9.669,9.669,0,0,1,894.018,467.354ZM895.41,477.8a10.632,10.632,0,0,0-3.456,1.853,14.646,14.646,0,0,0-3.422,3.888c.081.067.142.121.206.171a8.43,8.43,0,0,0,4.526,1.784,8.572,8.572,0,0,0,3.71-.5.213.213,0,0,0,.169-.268c-.022-.162-.028-.325-.046-.488a21.642,21.642,0,0,0-1.033-4.626C895.859,479.013,895.632,478.418,895.41,477.8Zm-7.722,4.941a16.83,16.83,0,0,1,3.143-3.59,12.616,12.616,0,0,1,4.123-2.388c-.191-.4-.371-.777-.553-1.156-.026-.054-.059-.1-.1-.17a17.646,17.646,0,0,1-8.785.664A8.574,8.574,0,0,0,887.688,482.742Zm-1.963-7.769a16.289,16.289,0,0,0,8.047-.561c-.037-.078-.057-.128-.082-.174a42.975,42.975,0,0,0-3.076-4.816c-.105-.143-.182-.15-.331-.076a8.669,8.669,0,0,0-2.569,1.923A8.5,8.5,0,0,0,885.725,474.973Zm12.532,9.373c.027,0,.042,0,.053,0a1.18,1.18,0,0,0,.126-.066,8.525,8.525,0,0,0,3.982-5.975c.026-.151-.012-.223-.17-.278a12.152,12.152,0,0,0-3.284-.674,9.411,9.411,0,0,0-2.431.163A24.513,24.513,0,0,1,898.257,484.346Zm1.176-13.854a8.235,8.235,0,0,0-4.4-1.931,8.386,8.386,0,0,0-3.416.281,42.257,42.257,0,0,1,3.258,5.128A12.8,12.8,0,0,0,899.433,470.491Zm-3.344,5.959a11.858,11.858,0,0,1,6.422.455,8.546,8.546,0,0,0-2.234-5.635,13.979,13.979,0,0,1-4.875,3.72Z" transform="translate(-884.33 -467.353)" fill="#2ccb69"/>
</svg>
