<svg xmlns="http://www.w3.org/2000/svg" width="19.326" height="15.675" viewBox="0 0 19.326 15.675">
  <path id="Path_12" data-name="Path 12" d="M44.12,17.675A11.173,11.173,0,0,0,55.393,6.4V5.865a8.727,8.727,0,0,0,1.933-2.04,8.913,8.913,0,0,1-2.255.644,4.177,4.177,0,0,0,1.718-2.147,9.848,9.848,0,0,1-2.469.966A3.834,3.834,0,0,0,51.421,2a4.034,4.034,0,0,0-3.972,3.972,2.093,2.093,0,0,0,.107.859A11.1,11.1,0,0,1,39.4,2.644a4.112,4.112,0,0,0-.537,2.04,4.266,4.266,0,0,0,1.718,3.328,3.619,3.619,0,0,1-1.825-.537h0a3.924,3.924,0,0,0,3.221,3.865,3.31,3.31,0,0,1-1.074.107,1.827,1.827,0,0,1-.752-.107,4.067,4.067,0,0,0,3.758,2.791,8.106,8.106,0,0,1-4.939,1.718A2.972,2.972,0,0,1,38,15.743a10.134,10.134,0,0,0,6.12,1.933" transform="translate(-38 -2)" fill="#2ccb69" fill-rule="evenodd"/>
</svg>
