<?xml version="1.0" encoding="utf-8"?>
<!-- Generator: Adobe Illustrator 21.0.2, SVG Export Plug-In . SVG Version: 6.00 Build 0)  -->
<svg version="1.1" id="Layer_1" xmlns="http://www.w3.org/2000/svg" xmlns:xlink="http://www.w3.org/1999/xlink" x="0px" y="0px"
	 width="395.8px" height="380.2px" viewBox="0 0 395.8 380.2" style="enable-background:new 0 0 395.8 380.2;" xml:space="preserve"
	>
<style type="text/css">
	.st0{fill:none;stroke:#2CCB69;stroke-width:16;stroke-miterlimit:10;}
</style>
<g>
	<g>
		<path class="st0" d="M375.8,179.1C395.3,84.8,329.6,8.2,228.9,8C128.3,7.8,30.9,84.1,11.4,178.4s46.3,170.9,146.9,171.1
			S356.3,273.3,375.8,179.1z"/>
		<g>
			<path class="st0" d="M203.9,154.9c-6.2,9.4-13.2,9.4-15.6,0L167,71.8c-2.4-9.3,4-21.6,14.2-27.2c0,0,17.3-9.5,39.2-9.4
				c21.5,0,35.2,9.7,35.2,9.7c7.9,5.6,9.4,17.8,3.2,27.2L203.9,154.9z"/>
			<path class="st0" d="M194.8,198.7c-2.3-9.4-9.3-9.4-15.6-0.1l-55.7,83c-6.3,9.3-4.9,21.6,3,27.2c0,0,13.3,9.5,35.2,9.6
				c21.5,0,39.1-9.5,39.1-9.5c10.2-5.6,16.7-17.8,14.4-27.1L194.8,198.7z"/>
			<path class="st0" d="M212.9,184.5c-9.2-4-7.8-10.6,3-14.6L312,134c10.8-4,23.1-0.4,27.4,8.1c0,0,7.2,14.4,2.9,34.9
				c-4.2,20.1-17.4,34.8-17.4,34.8c-7.7,8.5-21.5,12.2-30.7,8.2L212.9,184.5z"/>
			<path class="st0" d="M166.2,184.4c10.8-4,12.2-10.6,3.1-14.6l-81.2-36.2c-9.1-4.1-22.9-0.5-30.7,8c0,0-13.1,14.3-17.4,34.9
				c-4.2,20.1,3,34.8,3,34.8c4.2,8.5,16.5,12.3,27.3,8.3L166.2,184.4z"/>
			<path class="st0" d="M184.7,155.8c2.1,9.5-3.8,14.1-13.1,10.4l-83-33.4c-9.3-3.8-13.5-15-9.3-25c0,0,7.1-16.9,25.6-31.3
				c18.1-14.2,37.2-17.8,37.2-17.8c11.1-2.1,21.8,4,23.9,13.4L184.7,155.8z"/>
			<path class="st0" d="M211.4,186.8c-9.3-3.8-15.2,0.8-13.2,10.3l18,84.3c2,9.5,12.7,15.6,23.8,13.6c0,0,18.7-3.4,37.2-17.9
				c18.1-14.2,25.5-31.4,25.5-31.4c4.3-10,0.2-21.2-9.1-25.1L211.4,186.8z"/>
			<path class="st0" d="M215.5,166.8c-10.9,3.8-14.9-0.9-8.9-10.3l52.9-84.1c5.9-9.5,19.2-15.5,29.4-13.5c0,0,17.3,3.5,29.8,18
				c12.2,14.3,12.5,31.4,12.5,31.4c0.2,10-8.6,21.2-19.5,25L215.5,166.8z"/>
			<path class="st0" d="M176.1,197.7c6-9.4,2-14.1-8.8-10.4l-96.7,33.1c-10.9,3.7-19.7,14.9-19.6,24.9c0,0,0.2,16.9,12.7,31.4
				c12.2,14.3,29.8,17.9,29.8,17.9c10.2,2.1,23.5-3.9,29.5-13.3L176.1,197.7z"/>
		</g>
	</g>
	<g>
		<path class="st0" d="M26.3,280.6c34.6,55,95.9,91.6,165.7,91.6c108.1,0,195.7-87.6,195.7-195.7c0-31.1-7.3-60.5-20.2-86.7"/>
	</g>
</g>
</svg>
