<svg xmlns="http://www.w3.org/2000/svg" width="46.684" height="31.196" viewBox="0 0 46.684 31.196">
  <path id="Path_3" data-name="Path 3" d="M7.744-30.8v.836h3.3V-7.788c0,6.16-.44,7.392-2.772,7.392C7-.4,6.116-1.012,6.116-1.936a2.231,2.231,0,0,1,.4-1.144H8.228a6.934,6.934,0,0,0,.484-2.376c0-1.936-1.1-3.388-3.652-3.388A3.71,3.71,0,0,0,1.144-4.8C1.144-1.5,4.18.4,8.888.4,15.84.4,19.624-2.86,19.624-10.956V-29.964h2.42V-30.8Zm15.928,0v.968h2.6V-.968h-2.6V0h23.32l.836-10.3H46.9c-2.6,5.368-5.016,9.328-10.472,9.328H34.848V-29.832h4.664V-30.8Z" transform="translate(-1.144 30.8)"/>
</svg>
